<svg width="35" height="35" viewBox="0 0 35 35" fill="none" xmlns="http://www.w3.org/2000/svg">
<g clip-path="url(#clip0_68_235)">
<rect width="35" height="35" fill="white"/>
<g filter="url(#filter0_i_68_235)">
<path d="M29.1403 17.5792C29.1403 23.9642 23.9642 29.1403 17.5792 29.1403C11.1942 29.1403 6.01813 23.9642 6.01813 17.5792C6.01813 11.1942 11.1942 6.0181 17.5792 6.0181C23.9642 6.0181 29.1403 11.1942 29.1403 17.5792Z" fill="#FFAB0B"/>
</g>
<path fill-rule="evenodd" clip-rule="evenodd" d="M17.4029 0.00026431C17.4352 8.82041e-05 17.4676 0 17.5 0C17.5324 0 17.5648 8.82041e-05 17.5971 0.00026431C18.4718 0.00502597 19.1769 0.717927 19.1722 1.59257C19.1674 2.46722 18.4545 3.1724 17.5799 3.16764C17.5533 3.16749 17.5266 3.16742 17.5 3.16742C17.4734 3.16742 17.4467 3.16749 17.4201 3.16764C16.5455 3.1724 15.8326 2.46722 15.8278 1.59257C15.8231 0.717927 16.5282 0.00502597 17.4029 0.00026431ZM7.4339 5.06972C8.04897 5.69159 8.04345 6.69433 7.42159 7.30939C7.38398 7.34659 7.34659 7.38398 7.30939 7.42159C6.69433 8.04345 5.69159 8.04897 5.06972 7.4339C4.44786 6.81883 4.44234 5.81609 5.05741 5.19423C5.10277 5.14837 5.14837 5.10277 5.19423 5.05741C5.81609 4.44234 6.81883 4.44786 7.4339 5.06972ZM27.5661 5.06972C28.1812 4.44786 29.1839 4.44234 29.8058 5.05741C29.8516 5.10277 29.8972 5.14837 29.9426 5.19423C30.5577 5.81609 30.5521 6.81883 29.9303 7.4339C29.3084 8.04897 28.3057 8.04345 27.6906 7.42159C27.6534 7.38398 27.616 7.34659 27.5784 7.30939C26.9565 6.69433 26.951 5.69159 27.5661 5.06972ZM33.4074 15.8278C34.2821 15.8231 34.995 16.5282 34.9997 17.4029C34.9999 17.4352 35 17.4676 35 17.5C35 17.5244 35 17.5487 34.9999 17.573C34.9998 17.5811 34.9998 17.5891 34.9997 17.5971C34.995 18.4718 34.2821 19.1769 33.4074 19.1722C32.5328 19.1674 31.8276 18.4545 31.8324 17.5799C31.8325 17.5533 31.8326 17.5266 31.8326 17.5C31.8326 17.4734 31.8325 17.4467 31.8324 17.4201C31.8276 16.5455 32.5328 15.8326 33.4074 15.8278ZM1.59257 15.8278C2.46722 15.8326 3.1724 16.5455 3.16764 17.4201C3.16749 17.4467 3.16742 17.4734 3.16742 17.5C3.16742 17.5266 3.16749 17.5533 3.16764 17.5799C3.1724 18.4545 2.46722 19.1674 1.59257 19.1722C0.717927 19.1769 0.00502597 18.4718 0.00026431 17.5971C8.82041e-05 17.5648 0 17.5324 0 17.5C0 17.4676 8.82041e-05 17.4352 0.00026431 17.4029C0.00502597 16.5282 0.717927 15.8231 1.59257 15.8278ZM5.06972 27.5661C5.69159 26.951 6.69433 26.9565 7.30939 27.5784C7.34659 27.616 7.38398 27.6534 7.42159 27.6906C8.04345 28.3057 8.04897 29.3084 7.4339 29.9303C6.81883 30.5521 5.81609 30.5577 5.19423 29.9426C5.14837 29.8972 5.10277 29.8516 5.05741 29.8058C4.44234 29.1839 4.44786 28.1812 5.06972 27.5661ZM29.9303 27.5661C30.5521 28.1812 30.5577 29.1839 29.9426 29.8058C29.8972 29.8516 29.8516 29.8972 29.8058 29.9426C29.1839 30.5577 28.1812 30.5521 27.5661 29.9303C26.951 29.3084 26.9565 28.3057 27.5784 27.6906C27.616 27.6534 27.6534 27.616 27.6906 27.5784C28.3057 26.9565 29.3084 26.951 29.9303 27.5661ZM15.8278 33.4074C15.8326 32.5328 16.5455 31.8276 17.4201 31.8324C17.4374 31.8325 17.4546 31.8325 17.4718 31.8326C17.4812 31.8326 17.4906 31.8326 17.5 31.8326C17.5266 31.8326 17.5533 31.8325 17.5799 31.8324C18.4545 31.8276 19.1674 32.5328 19.1722 33.4074C19.1769 34.2821 18.4718 34.995 17.5971 34.9997C17.5738 34.9999 17.5504 34.9999 17.527 35C17.518 35 17.509 35 17.5 35C17.4676 35 17.4352 34.9999 17.4029 34.9997C16.5282 34.995 15.8231 34.2821 15.8278 33.4074Z" fill="#FFE200"/>
<g opacity="0.7" filter="url(#filter1_f_68_235)">
<ellipse cx="15.9163" cy="19.638" rx="6.09729" ry="6.33484" fill="white"/>
<ellipse cx="21.8552" cy="14.095" rx="7.91855" ry="8.23529" fill="white"/>
<ellipse cx="28.7444" cy="13.9366" rx="6.09729" ry="6.33484" fill="white"/>
<ellipse cx="9.18554" cy="21.5384" rx="7.1267" ry="7.44344" fill="white"/>
<ellipse cx="13.8575" cy="29.061" rx="4.03846" ry="4.19683" fill="white"/>
</g>
<path d="M19.4688 12.5781L16.5625 24H13.8047L12.2578 18C12.2266 17.8854 12.1849 17.7109 12.1328 17.4766C12.0807 17.2422 12.026 16.987 11.9688 16.7109C11.9115 16.4297 11.8594 16.1667 11.8125 15.9219C11.7708 15.6719 11.7422 15.474 11.7266 15.3281C11.7109 15.474 11.6797 15.6693 11.6328 15.9141C11.5911 16.1589 11.5417 16.4193 11.4844 16.6953C11.4323 16.9714 11.3802 17.2292 11.3281 17.4688C11.276 17.7083 11.2344 17.8906 11.2031 18.0156L9.66406 24H6.91406L4 12.5781H6.38281L7.84375 18.8125C7.88542 19 7.93229 19.224 7.98438 19.4844C8.04167 19.7448 8.09635 20.0182 8.14844 20.3047C8.20573 20.5859 8.25521 20.8594 8.29688 21.125C8.34375 21.3854 8.3776 21.612 8.39844 21.8047C8.42448 21.6068 8.45833 21.3776 8.5 21.1172C8.54167 20.8516 8.58594 20.5833 8.63281 20.3125C8.6849 20.0365 8.73698 19.7812 8.78906 19.5469C8.84115 19.3125 8.88802 19.1224 8.92969 18.9766L10.5938 12.5781H12.8828L14.5469 18.9766C14.5833 19.1172 14.625 19.3073 14.6719 19.5469C14.724 19.7812 14.776 20.0365 14.8281 20.3125C14.8802 20.5885 14.9271 20.8594 14.9688 21.125C15.0156 21.3854 15.0495 21.612 15.0703 21.8047C15.1068 21.5443 15.1562 21.2292 15.2188 20.8594C15.2865 20.4844 15.3568 20.112 15.4297 19.7422C15.5078 19.3724 15.5755 19.0625 15.6328 18.8125L17.0859 12.5781H19.4688ZM27.8984 24L27.0703 21.2812H22.9062L22.0781 24H19.4688L23.5 12.5312H26.4609L30.5078 24H27.8984ZM26.4922 19.25L25.6641 16.5938C25.612 16.4167 25.5417 16.1901 25.4531 15.9141C25.3698 15.6328 25.2839 15.349 25.1953 15.0625C25.112 14.7708 25.0443 14.5182 24.9922 14.3047C24.9401 14.5182 24.8672 14.7839 24.7734 15.1016C24.6849 15.4141 24.599 15.7109 24.5156 15.9922C24.4323 16.2734 24.3724 16.474 24.3359 16.5938L23.5156 19.25H26.4922Z" fill="black"/>
</g>
<defs>
<filter id="filter0_i_68_235" x="-3.98187" y="6.0181" width="33.1222" height="36.1222" filterUnits="userSpaceOnUse" color-interpolation-filters="sRGB">
<feFlood flood-opacity="0" result="BackgroundImageFix"/>
<feBlend mode="normal" in="SourceGraphic" in2="BackgroundImageFix" result="shape"/>
<feColorMatrix in="SourceAlpha" type="matrix" values="0 0 0 0 0 0 0 0 0 0 0 0 0 0 0 0 0 0 127 0" result="hardAlpha"/>
<feOffset dx="-10" dy="13"/>
<feGaussianBlur stdDeviation="12"/>
<feComposite in2="hardAlpha" operator="arithmetic" k2="-1" k3="1"/>
<feColorMatrix type="matrix" values="0 0 0 0 1 0 0 0 0 0.886275 0 0 0 0 0 0 0 0 0.9 0"/>
<feBlend mode="normal" in2="shape" result="effect1_innerShadow_68_235"/>
</filter>
<filter id="filter1_f_68_235" x="-51.9412" y="-48.1403" width="140.783" height="135.398" filterUnits="userSpaceOnUse" color-interpolation-filters="sRGB">
<feFlood flood-opacity="0" result="BackgroundImageFix"/>
<feBlend mode="normal" in="SourceGraphic" in2="BackgroundImageFix" result="shape"/>
<feGaussianBlur stdDeviation="27" result="effect1_foregroundBlur_68_235"/>
</filter>
<clipPath id="clip0_68_235">
<rect width="35" height="35" fill="white"/>
</clipPath>
</defs>
</svg>
